%TF.GenerationSoftware,KiCad,Pcbnew,7.0.8-7.0.8~ubuntu22.04.1*%
%TF.CreationDate,2023-10-09T20:55:15-05:00*%
%TF.ProjectId,VCO_Test_Board,56434f5f-5465-4737-945f-426f6172642e,rev?*%
%TF.SameCoordinates,Original*%
%TF.FileFunction,Copper,L2,Bot*%
%TF.FilePolarity,Positive*%
%FSLAX46Y46*%
G04 Gerber Fmt 4.6, Leading zero omitted, Abs format (unit mm)*
G04 Created by KiCad (PCBNEW 7.0.8-7.0.8~ubuntu22.04.1) date 2023-10-09 20:55:15*
%MOMM*%
%LPD*%
G01*
G04 APERTURE LIST*
%TA.AperFunction,ComponentPad*%
%ADD10C,2.400000*%
%TD*%
%TA.AperFunction,ComponentPad*%
%ADD11C,2.850000*%
%TD*%
%TA.AperFunction,ComponentPad*%
%ADD12R,1.700000X1.700000*%
%TD*%
%TA.AperFunction,ComponentPad*%
%ADD13O,1.700000X1.700000*%
%TD*%
%TA.AperFunction,ViaPad*%
%ADD14C,0.800000*%
%TD*%
G04 APERTURE END LIST*
D10*
%TO.P,J2,1,1*%
%TO.N,Net-(C3-Pad1)*%
X109175699Y-79320150D03*
D11*
%TO.P,J2,2,2*%
%TO.N,GND*%
X106600699Y-76745150D03*
%TO.P,J2,3,3*%
X106600699Y-81895150D03*
%TO.P,J2,4,4*%
X111750699Y-81895150D03*
%TO.P,J2,5,5*%
X111750699Y-76745150D03*
%TD*%
D10*
%TO.P,J1,1,1*%
%TO.N,Net-(C2-Pad1)*%
X110455000Y-40794077D03*
D11*
%TO.P,J1,2,2*%
%TO.N,GND*%
X107880000Y-38219077D03*
%TO.P,J1,3,3*%
X107880000Y-43369077D03*
%TO.P,J1,4,4*%
X113030000Y-43369077D03*
%TO.P,J1,5,5*%
X113030000Y-38219077D03*
%TD*%
D12*
%TO.P,J3,1,Pin_1*%
%TO.N,Net-(J3-Pin_1)*%
X40640000Y-78894077D03*
D13*
%TO.P,J3,2,Pin_2*%
%TO.N,GND*%
X43180000Y-78894077D03*
%TD*%
D12*
%TO.P,J4,1,Pin_1*%
%TO.N,Net-(C5-+)*%
X111760000Y-56034077D03*
D13*
%TO.P,J4,2,Pin_2*%
%TO.N,GND*%
X111760000Y-58574077D03*
%TD*%
D14*
%TO.N,GND*%
X95079572Y-56317657D03*
X52328723Y-53221381D03*
%TD*%
%TA.AperFunction,Conductor*%
%TO.N,GND*%
G36*
X119323039Y-30653762D02*
G01*
X119368794Y-30706566D01*
X119380000Y-30758077D01*
X119380000Y-86390077D01*
X119360315Y-86457116D01*
X119307511Y-86502871D01*
X119256000Y-86514077D01*
X30604000Y-86514077D01*
X30536961Y-86494392D01*
X30491206Y-86441588D01*
X30480000Y-86390077D01*
X30480000Y-81895151D01*
X104670782Y-81895151D01*
X104690426Y-82169811D01*
X104748954Y-82438861D01*
X104845187Y-82696872D01*
X104977146Y-82938536D01*
X104977151Y-82938544D01*
X105074160Y-83068133D01*
X105074161Y-83068134D01*
X105775343Y-82366952D01*
X105845588Y-82479649D01*
X105978704Y-82619687D01*
X106126703Y-82722697D01*
X105427713Y-83421686D01*
X105427714Y-83421687D01*
X105557304Y-83518697D01*
X105557312Y-83518702D01*
X105798977Y-83650661D01*
X105798976Y-83650661D01*
X106056987Y-83746894D01*
X106326037Y-83805422D01*
X106600698Y-83825067D01*
X106600700Y-83825067D01*
X106875360Y-83805422D01*
X107144410Y-83746894D01*
X107402421Y-83650661D01*
X107644085Y-83518702D01*
X107644086Y-83518701D01*
X107773683Y-83421686D01*
X107072050Y-82720053D01*
X107146202Y-82678896D01*
X107292803Y-82553044D01*
X107411069Y-82400257D01*
X107426960Y-82367859D01*
X108127235Y-83068134D01*
X108224250Y-82938537D01*
X108224251Y-82938536D01*
X108356210Y-82696872D01*
X108452443Y-82438861D01*
X108510971Y-82169811D01*
X108530616Y-81895151D01*
X108530616Y-81895148D01*
X108510971Y-81620488D01*
X108452443Y-81351438D01*
X108356210Y-81093427D01*
X108333211Y-81051308D01*
X108318359Y-80983035D01*
X108342776Y-80917571D01*
X108398709Y-80875699D01*
X108468401Y-80870715D01*
X108495841Y-80880159D01*
X108552695Y-80907539D01*
X108796241Y-80982663D01*
X109048264Y-81020650D01*
X109303134Y-81020650D01*
X109555157Y-80982663D01*
X109798703Y-80907539D01*
X109855555Y-80880160D01*
X109924493Y-80868809D01*
X109988628Y-80896531D01*
X110027594Y-80954526D01*
X110029019Y-81024381D01*
X110018187Y-81051306D01*
X109995188Y-81093426D01*
X109995187Y-81093427D01*
X109898954Y-81351438D01*
X109840426Y-81620488D01*
X109820782Y-81895148D01*
X109820782Y-81895151D01*
X109840426Y-82169811D01*
X109898954Y-82438861D01*
X109995187Y-82696872D01*
X110127146Y-82938536D01*
X110127151Y-82938544D01*
X110224160Y-83068134D01*
X110925342Y-82366951D01*
X110995588Y-82479649D01*
X111128704Y-82619687D01*
X111276703Y-82722697D01*
X110577713Y-83421686D01*
X110577714Y-83421687D01*
X110707304Y-83518697D01*
X110707312Y-83518702D01*
X110948977Y-83650661D01*
X110948976Y-83650661D01*
X111206987Y-83746894D01*
X111476037Y-83805422D01*
X111750698Y-83825067D01*
X111750700Y-83825067D01*
X112025360Y-83805422D01*
X112294410Y-83746894D01*
X112552421Y-83650661D01*
X112794085Y-83518702D01*
X112794086Y-83518701D01*
X112923683Y-83421686D01*
X112222050Y-82720053D01*
X112296202Y-82678896D01*
X112442803Y-82553044D01*
X112561069Y-82400257D01*
X112576960Y-82367859D01*
X113277235Y-83068134D01*
X113374250Y-82938537D01*
X113374251Y-82938536D01*
X113506210Y-82696872D01*
X113602443Y-82438861D01*
X113660971Y-82169811D01*
X113680616Y-81895151D01*
X113680616Y-81895148D01*
X113660971Y-81620488D01*
X113602443Y-81351438D01*
X113506210Y-81093427D01*
X113374251Y-80851763D01*
X113374246Y-80851755D01*
X113277236Y-80722165D01*
X113277235Y-80722164D01*
X112576053Y-81423346D01*
X112505810Y-81310651D01*
X112372694Y-81170613D01*
X112224693Y-81067601D01*
X112923683Y-80368611D01*
X112794093Y-80271602D01*
X112794085Y-80271597D01*
X112552420Y-80139638D01*
X112552421Y-80139638D01*
X112294410Y-80043405D01*
X112025360Y-79984877D01*
X111750700Y-79965233D01*
X111750698Y-79965233D01*
X111476037Y-79984877D01*
X111206987Y-80043405D01*
X110948979Y-80139637D01*
X110907258Y-80162419D01*
X110838985Y-80177270D01*
X110773521Y-80152852D01*
X110731650Y-80096919D01*
X110726666Y-80027227D01*
X110732404Y-80008284D01*
X110805207Y-79822787D01*
X110861921Y-79574307D01*
X110878163Y-79357569D01*
X110880967Y-79320154D01*
X110880967Y-79320145D01*
X110861921Y-79065995D01*
X110805208Y-78817519D01*
X110805207Y-78817513D01*
X110732403Y-78632015D01*
X110726235Y-78562419D01*
X110758673Y-78500535D01*
X110819418Y-78466012D01*
X110889184Y-78469811D01*
X110907260Y-78477881D01*
X110948980Y-78500662D01*
X111206987Y-78596894D01*
X111476037Y-78655422D01*
X111750698Y-78675067D01*
X111750700Y-78675067D01*
X112025360Y-78655422D01*
X112294410Y-78596894D01*
X112552421Y-78500661D01*
X112794085Y-78368702D01*
X112794086Y-78368701D01*
X112923683Y-78271686D01*
X112222050Y-77570053D01*
X112296202Y-77528896D01*
X112442803Y-77403044D01*
X112561069Y-77250257D01*
X112576960Y-77217859D01*
X113277235Y-77918134D01*
X113374250Y-77788537D01*
X113374251Y-77788536D01*
X113506210Y-77546872D01*
X113602443Y-77288861D01*
X113660971Y-77019811D01*
X113680616Y-76745151D01*
X113680616Y-76745148D01*
X113660971Y-76470488D01*
X113602443Y-76201438D01*
X113506210Y-75943427D01*
X113374251Y-75701763D01*
X113374246Y-75701755D01*
X113277236Y-75572165D01*
X113277235Y-75572164D01*
X112576053Y-76273346D01*
X112505810Y-76160651D01*
X112372694Y-76020613D01*
X112224693Y-75917601D01*
X112923683Y-75218612D01*
X112923682Y-75218611D01*
X112794093Y-75121602D01*
X112794085Y-75121597D01*
X112552420Y-74989638D01*
X112552421Y-74989638D01*
X112294410Y-74893405D01*
X112025360Y-74834877D01*
X111750700Y-74815233D01*
X111750698Y-74815233D01*
X111476037Y-74834877D01*
X111206987Y-74893405D01*
X110948976Y-74989638D01*
X110707312Y-75121597D01*
X110577714Y-75218612D01*
X111279348Y-75920245D01*
X111205196Y-75961404D01*
X111058595Y-76087256D01*
X110940329Y-76240043D01*
X110924437Y-76272441D01*
X110224161Y-75572165D01*
X110127146Y-75701763D01*
X109995187Y-75943427D01*
X109898954Y-76201438D01*
X109840426Y-76470488D01*
X109820782Y-76745148D01*
X109820782Y-76745151D01*
X109840426Y-77019811D01*
X109898954Y-77288861D01*
X109995186Y-77546869D01*
X110018187Y-77588992D01*
X110033038Y-77657265D01*
X110008621Y-77722729D01*
X109952687Y-77764600D01*
X109882995Y-77769584D01*
X109855553Y-77760138D01*
X109798706Y-77732762D01*
X109798707Y-77732762D01*
X109555165Y-77657639D01*
X109555161Y-77657638D01*
X109555157Y-77657637D01*
X109433930Y-77639364D01*
X109303139Y-77619650D01*
X109303134Y-77619650D01*
X109048264Y-77619650D01*
X109048258Y-77619650D01*
X108891308Y-77643307D01*
X108796241Y-77657637D01*
X108796238Y-77657638D01*
X108796232Y-77657639D01*
X108552694Y-77732761D01*
X108495843Y-77760139D01*
X108426902Y-77771490D01*
X108362768Y-77743767D01*
X108323803Y-77685771D01*
X108322378Y-77615916D01*
X108333211Y-77588990D01*
X108356211Y-77546868D01*
X108452443Y-77288861D01*
X108510971Y-77019811D01*
X108530616Y-76745151D01*
X108530616Y-76745148D01*
X108510971Y-76470488D01*
X108452443Y-76201438D01*
X108356210Y-75943427D01*
X108224251Y-75701763D01*
X108224246Y-75701755D01*
X108127236Y-75572165D01*
X108127235Y-75572164D01*
X107426053Y-76273346D01*
X107355810Y-76160651D01*
X107222694Y-76020613D01*
X107074693Y-75917601D01*
X107773683Y-75218612D01*
X107773682Y-75218611D01*
X107644093Y-75121602D01*
X107644085Y-75121597D01*
X107402420Y-74989638D01*
X107402421Y-74989638D01*
X107144410Y-74893405D01*
X106875360Y-74834877D01*
X106600700Y-74815233D01*
X106600698Y-74815233D01*
X106326037Y-74834877D01*
X106056987Y-74893405D01*
X105798976Y-74989638D01*
X105557312Y-75121597D01*
X105427714Y-75218612D01*
X106129348Y-75920245D01*
X106055196Y-75961404D01*
X105908595Y-76087256D01*
X105790329Y-76240043D01*
X105774437Y-76272441D01*
X105074161Y-75572165D01*
X104977146Y-75701763D01*
X104845187Y-75943427D01*
X104748954Y-76201438D01*
X104690426Y-76470488D01*
X104670782Y-76745148D01*
X104670782Y-76745151D01*
X104690426Y-77019811D01*
X104748954Y-77288861D01*
X104845187Y-77546872D01*
X104977146Y-77788536D01*
X104977151Y-77788544D01*
X105074160Y-77918133D01*
X105074161Y-77918134D01*
X105775343Y-77216952D01*
X105845588Y-77329649D01*
X105978704Y-77469687D01*
X106126703Y-77572697D01*
X105427713Y-78271686D01*
X105427714Y-78271687D01*
X105557304Y-78368697D01*
X105557312Y-78368702D01*
X105798977Y-78500661D01*
X105798976Y-78500661D01*
X106056987Y-78596894D01*
X106326037Y-78655422D01*
X106600698Y-78675067D01*
X106600700Y-78675067D01*
X106875360Y-78655422D01*
X107144410Y-78596894D01*
X107402419Y-78500661D01*
X107444136Y-78477882D01*
X107512409Y-78463029D01*
X107577874Y-78487445D01*
X107619746Y-78543377D01*
X107624732Y-78613069D01*
X107618993Y-78632015D01*
X107546192Y-78817507D01*
X107546189Y-78817519D01*
X107489476Y-79065995D01*
X107470431Y-79320145D01*
X107470431Y-79320154D01*
X107489476Y-79574304D01*
X107546189Y-79822780D01*
X107546192Y-79822792D01*
X107618993Y-80008284D01*
X107625162Y-80077881D01*
X107592724Y-80139764D01*
X107531979Y-80174287D01*
X107462213Y-80170488D01*
X107444138Y-80162418D01*
X107402420Y-80139638D01*
X107402421Y-80139638D01*
X107144410Y-80043405D01*
X106875360Y-79984877D01*
X106600700Y-79965233D01*
X106600698Y-79965233D01*
X106326037Y-79984877D01*
X106056987Y-80043405D01*
X105798976Y-80139638D01*
X105557312Y-80271597D01*
X105427714Y-80368612D01*
X106129348Y-81070246D01*
X106055196Y-81111404D01*
X105908595Y-81237256D01*
X105790329Y-81390043D01*
X105774437Y-81422441D01*
X105074161Y-80722165D01*
X104977146Y-80851763D01*
X104845187Y-81093427D01*
X104748954Y-81351438D01*
X104690426Y-81620488D01*
X104670782Y-81895148D01*
X104670782Y-81895151D01*
X30480000Y-81895151D01*
X30480000Y-79791947D01*
X39289500Y-79791947D01*
X39289501Y-79791953D01*
X39295908Y-79851560D01*
X39346202Y-79986405D01*
X39346206Y-79986412D01*
X39432452Y-80101621D01*
X39432455Y-80101624D01*
X39547664Y-80187870D01*
X39547671Y-80187874D01*
X39682517Y-80238168D01*
X39682516Y-80238168D01*
X39689444Y-80238912D01*
X39742127Y-80244577D01*
X41537872Y-80244576D01*
X41597483Y-80238168D01*
X41732331Y-80187873D01*
X41847546Y-80101623D01*
X41933796Y-79986408D01*
X41983002Y-79854478D01*
X42024872Y-79798545D01*
X42090337Y-79774127D01*
X42158610Y-79788978D01*
X42186865Y-79810130D01*
X42308917Y-79932182D01*
X42502421Y-80067677D01*
X42716507Y-80167506D01*
X42716516Y-80167510D01*
X42930000Y-80224711D01*
X42930000Y-79329578D01*
X43037685Y-79378757D01*
X43144237Y-79394077D01*
X43215763Y-79394077D01*
X43322315Y-79378757D01*
X43430000Y-79329578D01*
X43430000Y-80224710D01*
X43643483Y-80167510D01*
X43643492Y-80167506D01*
X43857578Y-80067677D01*
X44051082Y-79932182D01*
X44218105Y-79765159D01*
X44353600Y-79571655D01*
X44453429Y-79357569D01*
X44453432Y-79357563D01*
X44510636Y-79144077D01*
X43613686Y-79144077D01*
X43639493Y-79103921D01*
X43680000Y-78965966D01*
X43680000Y-78822188D01*
X43639493Y-78684233D01*
X43613686Y-78644077D01*
X44510636Y-78644077D01*
X44510635Y-78644076D01*
X44453432Y-78430590D01*
X44453429Y-78430584D01*
X44353600Y-78216499D01*
X44353599Y-78216497D01*
X44218113Y-78023003D01*
X44218108Y-78022997D01*
X44051082Y-77855971D01*
X43857578Y-77720476D01*
X43643492Y-77620647D01*
X43643486Y-77620644D01*
X43430000Y-77563441D01*
X43430000Y-78458575D01*
X43322315Y-78409397D01*
X43215763Y-78394077D01*
X43144237Y-78394077D01*
X43037685Y-78409397D01*
X42930000Y-78458575D01*
X42930000Y-77563441D01*
X42929999Y-77563441D01*
X42716513Y-77620644D01*
X42716507Y-77620647D01*
X42502422Y-77720476D01*
X42502420Y-77720477D01*
X42308926Y-77855963D01*
X42186865Y-77978024D01*
X42125542Y-78011508D01*
X42055850Y-78006524D01*
X41999917Y-77964652D01*
X41983002Y-77933675D01*
X41933797Y-77801748D01*
X41933793Y-77801741D01*
X41847547Y-77686532D01*
X41847544Y-77686529D01*
X41732335Y-77600283D01*
X41732328Y-77600279D01*
X41597482Y-77549985D01*
X41597483Y-77549985D01*
X41537883Y-77543578D01*
X41537881Y-77543577D01*
X41537873Y-77543577D01*
X41537864Y-77543577D01*
X39742129Y-77543577D01*
X39742123Y-77543578D01*
X39682516Y-77549985D01*
X39547671Y-77600279D01*
X39547664Y-77600283D01*
X39432455Y-77686529D01*
X39432452Y-77686532D01*
X39346206Y-77801741D01*
X39346202Y-77801748D01*
X39295908Y-77936594D01*
X39289501Y-77996193D01*
X39289500Y-77996212D01*
X39289500Y-79791947D01*
X30480000Y-79791947D01*
X30480000Y-56931947D01*
X110409500Y-56931947D01*
X110409501Y-56931953D01*
X110415908Y-56991560D01*
X110466202Y-57126405D01*
X110466206Y-57126412D01*
X110552452Y-57241621D01*
X110552455Y-57241624D01*
X110667664Y-57327870D01*
X110667671Y-57327874D01*
X110667674Y-57327875D01*
X110799598Y-57377079D01*
X110855531Y-57418950D01*
X110879949Y-57484414D01*
X110865098Y-57552687D01*
X110843947Y-57580942D01*
X110721886Y-57703003D01*
X110586400Y-57896497D01*
X110586399Y-57896499D01*
X110486570Y-58110584D01*
X110486567Y-58110590D01*
X110429364Y-58324076D01*
X110429364Y-58324077D01*
X111326314Y-58324077D01*
X111300507Y-58364233D01*
X111260000Y-58502188D01*
X111260000Y-58645966D01*
X111300507Y-58783921D01*
X111326314Y-58824077D01*
X110429364Y-58824077D01*
X110486567Y-59037563D01*
X110486570Y-59037569D01*
X110586399Y-59251655D01*
X110721894Y-59445159D01*
X110888917Y-59612182D01*
X111082421Y-59747677D01*
X111296507Y-59847506D01*
X111296516Y-59847510D01*
X111510000Y-59904711D01*
X111510000Y-59009578D01*
X111617685Y-59058757D01*
X111724237Y-59074077D01*
X111795763Y-59074077D01*
X111902315Y-59058757D01*
X112010000Y-59009578D01*
X112010000Y-59904710D01*
X112223483Y-59847510D01*
X112223492Y-59847506D01*
X112437578Y-59747677D01*
X112631082Y-59612182D01*
X112798105Y-59445159D01*
X112933600Y-59251655D01*
X113033429Y-59037569D01*
X113033432Y-59037563D01*
X113090636Y-58824077D01*
X112193686Y-58824077D01*
X112219493Y-58783921D01*
X112260000Y-58645966D01*
X112260000Y-58502188D01*
X112219493Y-58364233D01*
X112193686Y-58324077D01*
X113090636Y-58324077D01*
X113090635Y-58324076D01*
X113033432Y-58110590D01*
X113033429Y-58110584D01*
X112933600Y-57896499D01*
X112933599Y-57896497D01*
X112798113Y-57703003D01*
X112798108Y-57702997D01*
X112676053Y-57580942D01*
X112642568Y-57519619D01*
X112647552Y-57449927D01*
X112689424Y-57393994D01*
X112720400Y-57377079D01*
X112852331Y-57327873D01*
X112967546Y-57241623D01*
X113053796Y-57126408D01*
X113104091Y-56991560D01*
X113110500Y-56931950D01*
X113110499Y-55136205D01*
X113104091Y-55076594D01*
X113053796Y-54941746D01*
X113053795Y-54941745D01*
X113053793Y-54941741D01*
X112967547Y-54826532D01*
X112967544Y-54826529D01*
X112852335Y-54740283D01*
X112852328Y-54740279D01*
X112717482Y-54689985D01*
X112717483Y-54689985D01*
X112657883Y-54683578D01*
X112657881Y-54683577D01*
X112657873Y-54683577D01*
X112657864Y-54683577D01*
X110862129Y-54683577D01*
X110862123Y-54683578D01*
X110802516Y-54689985D01*
X110667671Y-54740279D01*
X110667664Y-54740283D01*
X110552455Y-54826529D01*
X110552452Y-54826532D01*
X110466206Y-54941741D01*
X110466202Y-54941748D01*
X110415908Y-55076594D01*
X110409501Y-55136193D01*
X110409501Y-55136200D01*
X110409500Y-55136212D01*
X110409500Y-56931947D01*
X30480000Y-56931947D01*
X30480000Y-43369078D01*
X105950083Y-43369078D01*
X105969727Y-43643738D01*
X106028255Y-43912788D01*
X106124488Y-44170799D01*
X106256447Y-44412463D01*
X106256452Y-44412471D01*
X106353461Y-44542060D01*
X106353462Y-44542061D01*
X107054644Y-43840879D01*
X107124889Y-43953576D01*
X107258005Y-44093614D01*
X107406004Y-44196624D01*
X106707014Y-44895613D01*
X106707015Y-44895614D01*
X106836605Y-44992624D01*
X106836613Y-44992629D01*
X107078278Y-45124588D01*
X107078277Y-45124588D01*
X107336288Y-45220821D01*
X107605338Y-45279349D01*
X107879999Y-45298994D01*
X107880001Y-45298994D01*
X108154661Y-45279349D01*
X108423711Y-45220821D01*
X108681722Y-45124588D01*
X108923386Y-44992629D01*
X108923387Y-44992628D01*
X109052984Y-44895613D01*
X108351351Y-44193980D01*
X108425503Y-44152823D01*
X108572104Y-44026971D01*
X108690370Y-43874184D01*
X108706261Y-43841786D01*
X109406536Y-44542061D01*
X109503551Y-44412464D01*
X109503552Y-44412463D01*
X109635511Y-44170799D01*
X109731744Y-43912788D01*
X109790272Y-43643738D01*
X109809917Y-43369078D01*
X109809917Y-43369075D01*
X109790272Y-43094415D01*
X109731744Y-42825365D01*
X109635511Y-42567354D01*
X109612512Y-42525235D01*
X109597660Y-42456962D01*
X109622077Y-42391498D01*
X109678010Y-42349626D01*
X109747702Y-42344642D01*
X109775142Y-42354086D01*
X109831996Y-42381466D01*
X110075542Y-42456590D01*
X110327565Y-42494577D01*
X110582435Y-42494577D01*
X110834458Y-42456590D01*
X111078004Y-42381466D01*
X111134856Y-42354087D01*
X111203794Y-42342736D01*
X111267929Y-42370458D01*
X111306895Y-42428453D01*
X111308320Y-42498308D01*
X111297488Y-42525233D01*
X111274489Y-42567353D01*
X111274488Y-42567354D01*
X111178255Y-42825365D01*
X111119727Y-43094415D01*
X111100083Y-43369075D01*
X111100083Y-43369078D01*
X111119727Y-43643738D01*
X111178255Y-43912788D01*
X111274488Y-44170799D01*
X111406447Y-44412463D01*
X111406452Y-44412471D01*
X111503461Y-44542061D01*
X112204643Y-43840878D01*
X112274889Y-43953576D01*
X112408005Y-44093614D01*
X112556004Y-44196624D01*
X111857014Y-44895613D01*
X111857015Y-44895614D01*
X111986605Y-44992624D01*
X111986613Y-44992629D01*
X112228278Y-45124588D01*
X112228277Y-45124588D01*
X112486288Y-45220821D01*
X112755338Y-45279349D01*
X113029999Y-45298994D01*
X113030001Y-45298994D01*
X113304661Y-45279349D01*
X113573711Y-45220821D01*
X113831722Y-45124588D01*
X114073386Y-44992629D01*
X114073387Y-44992628D01*
X114202984Y-44895613D01*
X113501351Y-44193980D01*
X113575503Y-44152823D01*
X113722104Y-44026971D01*
X113840370Y-43874184D01*
X113856261Y-43841786D01*
X114556536Y-44542061D01*
X114653551Y-44412464D01*
X114653552Y-44412463D01*
X114785511Y-44170799D01*
X114881744Y-43912788D01*
X114940272Y-43643738D01*
X114959917Y-43369078D01*
X114959917Y-43369075D01*
X114940272Y-43094415D01*
X114881744Y-42825365D01*
X114785511Y-42567354D01*
X114653552Y-42325690D01*
X114653547Y-42325682D01*
X114556537Y-42196092D01*
X114556536Y-42196091D01*
X113855354Y-42897273D01*
X113785111Y-42784578D01*
X113651995Y-42644540D01*
X113503994Y-42541528D01*
X114202984Y-41842538D01*
X114073394Y-41745529D01*
X114073386Y-41745524D01*
X113831721Y-41613565D01*
X113831722Y-41613565D01*
X113573711Y-41517332D01*
X113304661Y-41458804D01*
X113030001Y-41439160D01*
X113029999Y-41439160D01*
X112755338Y-41458804D01*
X112486288Y-41517332D01*
X112228280Y-41613564D01*
X112186559Y-41636346D01*
X112118286Y-41651197D01*
X112052822Y-41626779D01*
X112010951Y-41570846D01*
X112005967Y-41501154D01*
X112011705Y-41482211D01*
X112084508Y-41296714D01*
X112141222Y-41048234D01*
X112160268Y-40794077D01*
X112141222Y-40539920D01*
X112084508Y-40291440D01*
X112011704Y-40105942D01*
X112005536Y-40036346D01*
X112037974Y-39974462D01*
X112098719Y-39939939D01*
X112168485Y-39943738D01*
X112186561Y-39951808D01*
X112228281Y-39974589D01*
X112486288Y-40070821D01*
X112755338Y-40129349D01*
X113029999Y-40148994D01*
X113030001Y-40148994D01*
X113304661Y-40129349D01*
X113573711Y-40070821D01*
X113831722Y-39974588D01*
X114073386Y-39842629D01*
X114073387Y-39842628D01*
X114202984Y-39745613D01*
X113501351Y-39043980D01*
X113575503Y-39002823D01*
X113722104Y-38876971D01*
X113840370Y-38724184D01*
X113856261Y-38691786D01*
X114556536Y-39392061D01*
X114653551Y-39262464D01*
X114653552Y-39262463D01*
X114785511Y-39020799D01*
X114881744Y-38762788D01*
X114940272Y-38493738D01*
X114959917Y-38219078D01*
X114959917Y-38219075D01*
X114940272Y-37944415D01*
X114881744Y-37675365D01*
X114785511Y-37417354D01*
X114653552Y-37175690D01*
X114653547Y-37175682D01*
X114556537Y-37046092D01*
X114556536Y-37046091D01*
X113855354Y-37747273D01*
X113785111Y-37634578D01*
X113651995Y-37494540D01*
X113503994Y-37391528D01*
X114202984Y-36692539D01*
X114202983Y-36692538D01*
X114073394Y-36595529D01*
X114073386Y-36595524D01*
X113831721Y-36463565D01*
X113831722Y-36463565D01*
X113573711Y-36367332D01*
X113304661Y-36308804D01*
X113030001Y-36289160D01*
X113029999Y-36289160D01*
X112755338Y-36308804D01*
X112486288Y-36367332D01*
X112228277Y-36463565D01*
X111986613Y-36595524D01*
X111857015Y-36692539D01*
X112558649Y-37394172D01*
X112484497Y-37435331D01*
X112337896Y-37561183D01*
X112219630Y-37713970D01*
X112203738Y-37746368D01*
X111503462Y-37046092D01*
X111406447Y-37175690D01*
X111274488Y-37417354D01*
X111178255Y-37675365D01*
X111119727Y-37944415D01*
X111100083Y-38219075D01*
X111100083Y-38219078D01*
X111119727Y-38493738D01*
X111178255Y-38762788D01*
X111274487Y-39020796D01*
X111297488Y-39062919D01*
X111312339Y-39131192D01*
X111287922Y-39196656D01*
X111231988Y-39238527D01*
X111162296Y-39243511D01*
X111134854Y-39234065D01*
X111078007Y-39206689D01*
X111078008Y-39206689D01*
X110834466Y-39131566D01*
X110834462Y-39131565D01*
X110834458Y-39131564D01*
X110713231Y-39113291D01*
X110582440Y-39093577D01*
X110582435Y-39093577D01*
X110327565Y-39093577D01*
X110327559Y-39093577D01*
X110170609Y-39117234D01*
X110075542Y-39131564D01*
X110075539Y-39131565D01*
X110075533Y-39131566D01*
X109831995Y-39206688D01*
X109775144Y-39234066D01*
X109706203Y-39245417D01*
X109642069Y-39217694D01*
X109603104Y-39159698D01*
X109601679Y-39089843D01*
X109612512Y-39062917D01*
X109635512Y-39020795D01*
X109731744Y-38762788D01*
X109790272Y-38493738D01*
X109809917Y-38219078D01*
X109809917Y-38219075D01*
X109790272Y-37944415D01*
X109731744Y-37675365D01*
X109635511Y-37417354D01*
X109503552Y-37175690D01*
X109503547Y-37175682D01*
X109406537Y-37046092D01*
X109406536Y-37046091D01*
X108705354Y-37747273D01*
X108635111Y-37634578D01*
X108501995Y-37494540D01*
X108353994Y-37391528D01*
X109052984Y-36692539D01*
X109052983Y-36692538D01*
X108923394Y-36595529D01*
X108923386Y-36595524D01*
X108681721Y-36463565D01*
X108681722Y-36463565D01*
X108423711Y-36367332D01*
X108154661Y-36308804D01*
X107880001Y-36289160D01*
X107879999Y-36289160D01*
X107605338Y-36308804D01*
X107336288Y-36367332D01*
X107078277Y-36463565D01*
X106836613Y-36595524D01*
X106707015Y-36692539D01*
X107408649Y-37394172D01*
X107334497Y-37435331D01*
X107187896Y-37561183D01*
X107069630Y-37713970D01*
X107053738Y-37746368D01*
X106353462Y-37046092D01*
X106256447Y-37175690D01*
X106124488Y-37417354D01*
X106028255Y-37675365D01*
X105969727Y-37944415D01*
X105950083Y-38219075D01*
X105950083Y-38219078D01*
X105969727Y-38493738D01*
X106028255Y-38762788D01*
X106124488Y-39020799D01*
X106256447Y-39262463D01*
X106256452Y-39262471D01*
X106353461Y-39392060D01*
X106353462Y-39392061D01*
X107054644Y-38690879D01*
X107124889Y-38803576D01*
X107258005Y-38943614D01*
X107406004Y-39046624D01*
X106707014Y-39745613D01*
X106707015Y-39745614D01*
X106836605Y-39842624D01*
X106836613Y-39842629D01*
X107078278Y-39974588D01*
X107078277Y-39974588D01*
X107336288Y-40070821D01*
X107605338Y-40129349D01*
X107879999Y-40148994D01*
X107880001Y-40148994D01*
X108154661Y-40129349D01*
X108423711Y-40070821D01*
X108681720Y-39974588D01*
X108723437Y-39951809D01*
X108791710Y-39936956D01*
X108857175Y-39961372D01*
X108899047Y-40017304D01*
X108904033Y-40086996D01*
X108898294Y-40105942D01*
X108825493Y-40291434D01*
X108825490Y-40291446D01*
X108768777Y-40539922D01*
X108749732Y-40794072D01*
X108749732Y-40794081D01*
X108768777Y-41048231D01*
X108825490Y-41296707D01*
X108825493Y-41296719D01*
X108898294Y-41482211D01*
X108904463Y-41551808D01*
X108872025Y-41613691D01*
X108811280Y-41648214D01*
X108741514Y-41644415D01*
X108723439Y-41636345D01*
X108681721Y-41613565D01*
X108681722Y-41613565D01*
X108423711Y-41517332D01*
X108154661Y-41458804D01*
X107880001Y-41439160D01*
X107879999Y-41439160D01*
X107605338Y-41458804D01*
X107336288Y-41517332D01*
X107078277Y-41613565D01*
X106836613Y-41745524D01*
X106707015Y-41842539D01*
X107408649Y-42544173D01*
X107334497Y-42585331D01*
X107187896Y-42711183D01*
X107069630Y-42863970D01*
X107053738Y-42896368D01*
X106353462Y-42196092D01*
X106256447Y-42325690D01*
X106124488Y-42567354D01*
X106028255Y-42825365D01*
X105969727Y-43094415D01*
X105950083Y-43369075D01*
X105950083Y-43369078D01*
X30480000Y-43369078D01*
X30480000Y-30758077D01*
X30499685Y-30691038D01*
X30552489Y-30645283D01*
X30604000Y-30634077D01*
X119256000Y-30634077D01*
X119323039Y-30653762D01*
G37*
%TD.AperFunction*%
%TD*%
M02*
