%TF.GenerationSoftware,KiCad,Pcbnew,7.0.8-7.0.8~ubuntu22.04.1*%
%TF.CreationDate,2023-10-09T20:30:47-05:00*%
%TF.ProjectId,VCO_Test_Board,56434f5f-5465-4737-945f-426f6172642e,rev?*%
%TF.SameCoordinates,Original*%
%TF.FileFunction,Legend,Top*%
%TF.FilePolarity,Positive*%
%FSLAX46Y46*%
G04 Gerber Fmt 4.6, Leading zero omitted, Abs format (unit mm)*
G04 Created by KiCad (PCBNEW 7.0.8-7.0.8~ubuntu22.04.1) date 2023-10-09 20:30:47*
%MOMM*%
%LPD*%
G01*
G04 APERTURE LIST*
%ADD10C,0.254000*%
%ADD11C,0.150000*%
%ADD12C,0.200000*%
%ADD13C,0.120000*%
%ADD14C,0.100000*%
G04 APERTURE END LIST*
D10*
X59413657Y-54843106D02*
X59413657Y-55447868D01*
X58990324Y-54177868D02*
X59413657Y-54843106D01*
X59413657Y-54843106D02*
X59836991Y-54177868D01*
X60925562Y-55447868D02*
X60199847Y-55447868D01*
X60562704Y-55447868D02*
X60562704Y-54177868D01*
X60562704Y-54177868D02*
X60441752Y-54359296D01*
X60441752Y-54359296D02*
X60320800Y-54480249D01*
X60320800Y-54480249D02*
X60199847Y-54540725D01*
D11*
X45553333Y-48868896D02*
X45077143Y-48868896D01*
X45077143Y-48868896D02*
X45077143Y-47868896D01*
X45839048Y-47964134D02*
X45886667Y-47916515D01*
X45886667Y-47916515D02*
X45981905Y-47868896D01*
X45981905Y-47868896D02*
X46220000Y-47868896D01*
X46220000Y-47868896D02*
X46315238Y-47916515D01*
X46315238Y-47916515D02*
X46362857Y-47964134D01*
X46362857Y-47964134D02*
X46410476Y-48059372D01*
X46410476Y-48059372D02*
X46410476Y-48154610D01*
X46410476Y-48154610D02*
X46362857Y-48297467D01*
X46362857Y-48297467D02*
X45791429Y-48868896D01*
X45791429Y-48868896D02*
X46410476Y-48868896D01*
X94784828Y-47944139D02*
X94737209Y-47991759D01*
X94737209Y-47991759D02*
X94594352Y-48039378D01*
X94594352Y-48039378D02*
X94499114Y-48039378D01*
X94499114Y-48039378D02*
X94356257Y-47991759D01*
X94356257Y-47991759D02*
X94261019Y-47896520D01*
X94261019Y-47896520D02*
X94213400Y-47801282D01*
X94213400Y-47801282D02*
X94165781Y-47610806D01*
X94165781Y-47610806D02*
X94165781Y-47467949D01*
X94165781Y-47467949D02*
X94213400Y-47277473D01*
X94213400Y-47277473D02*
X94261019Y-47182235D01*
X94261019Y-47182235D02*
X94356257Y-47086997D01*
X94356257Y-47086997D02*
X94499114Y-47039378D01*
X94499114Y-47039378D02*
X94594352Y-47039378D01*
X94594352Y-47039378D02*
X94737209Y-47086997D01*
X94737209Y-47086997D02*
X94784828Y-47134616D01*
X95641971Y-47372711D02*
X95641971Y-48039378D01*
X95403876Y-46991759D02*
X95165781Y-47706044D01*
X95165781Y-47706044D02*
X95784828Y-47706044D01*
X51695833Y-43788896D02*
X51219643Y-43788896D01*
X51219643Y-43788896D02*
X51219643Y-42788896D01*
X52552976Y-43788896D02*
X51981548Y-43788896D01*
X52267262Y-43788896D02*
X52267262Y-42788896D01*
X52267262Y-42788896D02*
X52172024Y-42931753D01*
X52172024Y-42931753D02*
X52076786Y-43026991D01*
X52076786Y-43026991D02*
X51981548Y-43074610D01*
X52071469Y-59498648D02*
X52023850Y-59546268D01*
X52023850Y-59546268D02*
X51880993Y-59593887D01*
X51880993Y-59593887D02*
X51785755Y-59593887D01*
X51785755Y-59593887D02*
X51642898Y-59546268D01*
X51642898Y-59546268D02*
X51547660Y-59451029D01*
X51547660Y-59451029D02*
X51500041Y-59355791D01*
X51500041Y-59355791D02*
X51452422Y-59165315D01*
X51452422Y-59165315D02*
X51452422Y-59022458D01*
X51452422Y-59022458D02*
X51500041Y-58831982D01*
X51500041Y-58831982D02*
X51547660Y-58736744D01*
X51547660Y-58736744D02*
X51642898Y-58641506D01*
X51642898Y-58641506D02*
X51785755Y-58593887D01*
X51785755Y-58593887D02*
X51880993Y-58593887D01*
X51880993Y-58593887D02*
X52023850Y-58641506D01*
X52023850Y-58641506D02*
X52071469Y-58689125D01*
X53023850Y-59593887D02*
X52452422Y-59593887D01*
X52738136Y-59593887D02*
X52738136Y-58593887D01*
X52738136Y-58593887D02*
X52642898Y-58736744D01*
X52642898Y-58736744D02*
X52547660Y-58831982D01*
X52547660Y-58831982D02*
X52452422Y-58879601D01*
X77314932Y-54390997D02*
X77267313Y-54438617D01*
X77267313Y-54438617D02*
X77124456Y-54486236D01*
X77124456Y-54486236D02*
X77029218Y-54486236D01*
X77029218Y-54486236D02*
X76886361Y-54438617D01*
X76886361Y-54438617D02*
X76791123Y-54343378D01*
X76791123Y-54343378D02*
X76743504Y-54248140D01*
X76743504Y-54248140D02*
X76695885Y-54057664D01*
X76695885Y-54057664D02*
X76695885Y-53914807D01*
X76695885Y-53914807D02*
X76743504Y-53724331D01*
X76743504Y-53724331D02*
X76791123Y-53629093D01*
X76791123Y-53629093D02*
X76886361Y-53533855D01*
X76886361Y-53533855D02*
X77029218Y-53486236D01*
X77029218Y-53486236D02*
X77124456Y-53486236D01*
X77124456Y-53486236D02*
X77267313Y-53533855D01*
X77267313Y-53533855D02*
X77314932Y-53581474D01*
X77648266Y-53486236D02*
X78267313Y-53486236D01*
X78267313Y-53486236D02*
X77933980Y-53867188D01*
X77933980Y-53867188D02*
X78076837Y-53867188D01*
X78076837Y-53867188D02*
X78172075Y-53914807D01*
X78172075Y-53914807D02*
X78219694Y-53962426D01*
X78219694Y-53962426D02*
X78267313Y-54057664D01*
X78267313Y-54057664D02*
X78267313Y-54295759D01*
X78267313Y-54295759D02*
X78219694Y-54390997D01*
X78219694Y-54390997D02*
X78172075Y-54438617D01*
X78172075Y-54438617D02*
X78076837Y-54486236D01*
X78076837Y-54486236D02*
X77791123Y-54486236D01*
X77791123Y-54486236D02*
X77695885Y-54438617D01*
X77695885Y-54438617D02*
X77648266Y-54390997D01*
X103181383Y-52487991D02*
X102848050Y-52011800D01*
X102609955Y-52487991D02*
X102609955Y-51487991D01*
X102609955Y-51487991D02*
X102990907Y-51487991D01*
X102990907Y-51487991D02*
X103086145Y-51535610D01*
X103086145Y-51535610D02*
X103133764Y-51583229D01*
X103133764Y-51583229D02*
X103181383Y-51678467D01*
X103181383Y-51678467D02*
X103181383Y-51821324D01*
X103181383Y-51821324D02*
X103133764Y-51916562D01*
X103133764Y-51916562D02*
X103086145Y-51964181D01*
X103086145Y-51964181D02*
X102990907Y-52011800D01*
X102990907Y-52011800D02*
X102609955Y-52011800D01*
X104038526Y-51821324D02*
X104038526Y-52487991D01*
X103800431Y-51440372D02*
X103562336Y-52154657D01*
X103562336Y-52154657D02*
X104181383Y-52154657D01*
X55534915Y-48098649D02*
X55058725Y-48098649D01*
X55058725Y-48098649D02*
X55058725Y-47098649D01*
X55773011Y-47098649D02*
X56392058Y-47098649D01*
X56392058Y-47098649D02*
X56058725Y-47479601D01*
X56058725Y-47479601D02*
X56201582Y-47479601D01*
X56201582Y-47479601D02*
X56296820Y-47527220D01*
X56296820Y-47527220D02*
X56344439Y-47574839D01*
X56344439Y-47574839D02*
X56392058Y-47670077D01*
X56392058Y-47670077D02*
X56392058Y-47908172D01*
X56392058Y-47908172D02*
X56344439Y-48003410D01*
X56344439Y-48003410D02*
X56296820Y-48051030D01*
X56296820Y-48051030D02*
X56201582Y-48098649D01*
X56201582Y-48098649D02*
X55915868Y-48098649D01*
X55915868Y-48098649D02*
X55820630Y-48051030D01*
X55820630Y-48051030D02*
X55773011Y-48003410D01*
X37378658Y-77239000D02*
X37378658Y-77953285D01*
X37378658Y-77953285D02*
X37331039Y-78096142D01*
X37331039Y-78096142D02*
X37235801Y-78191381D01*
X37235801Y-78191381D02*
X37092944Y-78239000D01*
X37092944Y-78239000D02*
X36997706Y-78239000D01*
X37759611Y-77239000D02*
X38378658Y-77239000D01*
X38378658Y-77239000D02*
X38045325Y-77619952D01*
X38045325Y-77619952D02*
X38188182Y-77619952D01*
X38188182Y-77619952D02*
X38283420Y-77667571D01*
X38283420Y-77667571D02*
X38331039Y-77715190D01*
X38331039Y-77715190D02*
X38378658Y-77810428D01*
X38378658Y-77810428D02*
X38378658Y-78048523D01*
X38378658Y-78048523D02*
X38331039Y-78143761D01*
X38331039Y-78143761D02*
X38283420Y-78191381D01*
X38283420Y-78191381D02*
X38188182Y-78239000D01*
X38188182Y-78239000D02*
X37902468Y-78239000D01*
X37902468Y-78239000D02*
X37807230Y-78191381D01*
X37807230Y-78191381D02*
X37759611Y-78143761D01*
X65873333Y-46328896D02*
X65397143Y-46328896D01*
X65397143Y-46328896D02*
X65397143Y-45328896D01*
X66635238Y-45662229D02*
X66635238Y-46328896D01*
X66397143Y-45281277D02*
X66159048Y-45995562D01*
X66159048Y-45995562D02*
X66778095Y-45995562D01*
X77324438Y-49842106D02*
X77276819Y-49889726D01*
X77276819Y-49889726D02*
X77133962Y-49937345D01*
X77133962Y-49937345D02*
X77038724Y-49937345D01*
X77038724Y-49937345D02*
X76895867Y-49889726D01*
X76895867Y-49889726D02*
X76800629Y-49794487D01*
X76800629Y-49794487D02*
X76753010Y-49699249D01*
X76753010Y-49699249D02*
X76705391Y-49508773D01*
X76705391Y-49508773D02*
X76705391Y-49365916D01*
X76705391Y-49365916D02*
X76753010Y-49175440D01*
X76753010Y-49175440D02*
X76800629Y-49080202D01*
X76800629Y-49080202D02*
X76895867Y-48984964D01*
X76895867Y-48984964D02*
X77038724Y-48937345D01*
X77038724Y-48937345D02*
X77133962Y-48937345D01*
X77133962Y-48937345D02*
X77276819Y-48984964D01*
X77276819Y-48984964D02*
X77324438Y-49032583D01*
X77705391Y-49032583D02*
X77753010Y-48984964D01*
X77753010Y-48984964D02*
X77848248Y-48937345D01*
X77848248Y-48937345D02*
X78086343Y-48937345D01*
X78086343Y-48937345D02*
X78181581Y-48984964D01*
X78181581Y-48984964D02*
X78229200Y-49032583D01*
X78229200Y-49032583D02*
X78276819Y-49127821D01*
X78276819Y-49127821D02*
X78276819Y-49223059D01*
X78276819Y-49223059D02*
X78229200Y-49365916D01*
X78229200Y-49365916D02*
X77657772Y-49937345D01*
X77657772Y-49937345D02*
X78276819Y-49937345D01*
X71645403Y-49207617D02*
X71312070Y-48731426D01*
X71073975Y-49207617D02*
X71073975Y-48207617D01*
X71073975Y-48207617D02*
X71454927Y-48207617D01*
X71454927Y-48207617D02*
X71550165Y-48255236D01*
X71550165Y-48255236D02*
X71597784Y-48302855D01*
X71597784Y-48302855D02*
X71645403Y-48398093D01*
X71645403Y-48398093D02*
X71645403Y-48540950D01*
X71645403Y-48540950D02*
X71597784Y-48636188D01*
X71597784Y-48636188D02*
X71550165Y-48683807D01*
X71550165Y-48683807D02*
X71454927Y-48731426D01*
X71454927Y-48731426D02*
X71073975Y-48731426D01*
X71978737Y-48207617D02*
X72597784Y-48207617D01*
X72597784Y-48207617D02*
X72264451Y-48588569D01*
X72264451Y-48588569D02*
X72407308Y-48588569D01*
X72407308Y-48588569D02*
X72502546Y-48636188D01*
X72502546Y-48636188D02*
X72550165Y-48683807D01*
X72550165Y-48683807D02*
X72597784Y-48779045D01*
X72597784Y-48779045D02*
X72597784Y-49017140D01*
X72597784Y-49017140D02*
X72550165Y-49112378D01*
X72550165Y-49112378D02*
X72502546Y-49159998D01*
X72502546Y-49159998D02*
X72407308Y-49207617D01*
X72407308Y-49207617D02*
X72121594Y-49207617D01*
X72121594Y-49207617D02*
X72026356Y-49159998D01*
X72026356Y-49159998D02*
X71978737Y-49112378D01*
X66103865Y-57930831D02*
X65627675Y-57930831D01*
X65627675Y-57930831D02*
X65627675Y-56930831D01*
X66913389Y-56930831D02*
X66437199Y-56930831D01*
X66437199Y-56930831D02*
X66389580Y-57407021D01*
X66389580Y-57407021D02*
X66437199Y-57359402D01*
X66437199Y-57359402D02*
X66532437Y-57311783D01*
X66532437Y-57311783D02*
X66770532Y-57311783D01*
X66770532Y-57311783D02*
X66865770Y-57359402D01*
X66865770Y-57359402D02*
X66913389Y-57407021D01*
X66913389Y-57407021D02*
X66961008Y-57502259D01*
X66961008Y-57502259D02*
X66961008Y-57740354D01*
X66961008Y-57740354D02*
X66913389Y-57835592D01*
X66913389Y-57835592D02*
X66865770Y-57883212D01*
X66865770Y-57883212D02*
X66770532Y-57930831D01*
X66770532Y-57930831D02*
X66532437Y-57930831D01*
X66532437Y-57930831D02*
X66437199Y-57883212D01*
X66437199Y-57883212D02*
X66389580Y-57835592D01*
D10*
X112651482Y-34567658D02*
X112651482Y-35474801D01*
X112651482Y-35474801D02*
X112591005Y-35656229D01*
X112591005Y-35656229D02*
X112470053Y-35777182D01*
X112470053Y-35777182D02*
X112288624Y-35837658D01*
X112288624Y-35837658D02*
X112167672Y-35837658D01*
X113921482Y-35837658D02*
X113195767Y-35837658D01*
X113558624Y-35837658D02*
X113558624Y-34567658D01*
X113558624Y-34567658D02*
X113437672Y-34749086D01*
X113437672Y-34749086D02*
X113316720Y-34870039D01*
X113316720Y-34870039D02*
X113195767Y-34930515D01*
D11*
X94784828Y-63461982D02*
X94737209Y-63509602D01*
X94737209Y-63509602D02*
X94594352Y-63557221D01*
X94594352Y-63557221D02*
X94499114Y-63557221D01*
X94499114Y-63557221D02*
X94356257Y-63509602D01*
X94356257Y-63509602D02*
X94261019Y-63414363D01*
X94261019Y-63414363D02*
X94213400Y-63319125D01*
X94213400Y-63319125D02*
X94165781Y-63128649D01*
X94165781Y-63128649D02*
X94165781Y-62985792D01*
X94165781Y-62985792D02*
X94213400Y-62795316D01*
X94213400Y-62795316D02*
X94261019Y-62700078D01*
X94261019Y-62700078D02*
X94356257Y-62604840D01*
X94356257Y-62604840D02*
X94499114Y-62557221D01*
X94499114Y-62557221D02*
X94594352Y-62557221D01*
X94594352Y-62557221D02*
X94737209Y-62604840D01*
X94737209Y-62604840D02*
X94784828Y-62652459D01*
X95689590Y-62557221D02*
X95213400Y-62557221D01*
X95213400Y-62557221D02*
X95165781Y-63033411D01*
X95165781Y-63033411D02*
X95213400Y-62985792D01*
X95213400Y-62985792D02*
X95308638Y-62938173D01*
X95308638Y-62938173D02*
X95546733Y-62938173D01*
X95546733Y-62938173D02*
X95641971Y-62985792D01*
X95641971Y-62985792D02*
X95689590Y-63033411D01*
X95689590Y-63033411D02*
X95737209Y-63128649D01*
X95737209Y-63128649D02*
X95737209Y-63366744D01*
X95737209Y-63366744D02*
X95689590Y-63461982D01*
X95689590Y-63461982D02*
X95641971Y-63509602D01*
X95641971Y-63509602D02*
X95546733Y-63557221D01*
X95546733Y-63557221D02*
X95308638Y-63557221D01*
X95308638Y-63557221D02*
X95213400Y-63509602D01*
X95213400Y-63509602D02*
X95165781Y-63461982D01*
X71661569Y-54888907D02*
X71328236Y-54412716D01*
X71090141Y-54888907D02*
X71090141Y-53888907D01*
X71090141Y-53888907D02*
X71471093Y-53888907D01*
X71471093Y-53888907D02*
X71566331Y-53936526D01*
X71566331Y-53936526D02*
X71613950Y-53984145D01*
X71613950Y-53984145D02*
X71661569Y-54079383D01*
X71661569Y-54079383D02*
X71661569Y-54222240D01*
X71661569Y-54222240D02*
X71613950Y-54317478D01*
X71613950Y-54317478D02*
X71566331Y-54365097D01*
X71566331Y-54365097D02*
X71471093Y-54412716D01*
X71471093Y-54412716D02*
X71090141Y-54412716D01*
X72042522Y-53984145D02*
X72090141Y-53936526D01*
X72090141Y-53936526D02*
X72185379Y-53888907D01*
X72185379Y-53888907D02*
X72423474Y-53888907D01*
X72423474Y-53888907D02*
X72518712Y-53936526D01*
X72518712Y-53936526D02*
X72566331Y-53984145D01*
X72566331Y-53984145D02*
X72613950Y-54079383D01*
X72613950Y-54079383D02*
X72613950Y-54174621D01*
X72613950Y-54174621D02*
X72566331Y-54317478D01*
X72566331Y-54317478D02*
X71994903Y-54888907D01*
X71994903Y-54888907D02*
X72613950Y-54888907D01*
X44553333Y-60038896D02*
X44220000Y-59562705D01*
X43981905Y-60038896D02*
X43981905Y-59038896D01*
X43981905Y-59038896D02*
X44362857Y-59038896D01*
X44362857Y-59038896D02*
X44458095Y-59086515D01*
X44458095Y-59086515D02*
X44505714Y-59134134D01*
X44505714Y-59134134D02*
X44553333Y-59229372D01*
X44553333Y-59229372D02*
X44553333Y-59372229D01*
X44553333Y-59372229D02*
X44505714Y-59467467D01*
X44505714Y-59467467D02*
X44458095Y-59515086D01*
X44458095Y-59515086D02*
X44362857Y-59562705D01*
X44362857Y-59562705D02*
X43981905Y-59562705D01*
X45505714Y-60038896D02*
X44934286Y-60038896D01*
X45220000Y-60038896D02*
X45220000Y-59038896D01*
X45220000Y-59038896D02*
X45124762Y-59181753D01*
X45124762Y-59181753D02*
X45029524Y-59276991D01*
X45029524Y-59276991D02*
X44934286Y-59324610D01*
X115074693Y-54598409D02*
X115074693Y-55312694D01*
X115074693Y-55312694D02*
X115027074Y-55455551D01*
X115027074Y-55455551D02*
X114931836Y-55550790D01*
X114931836Y-55550790D02*
X114788979Y-55598409D01*
X114788979Y-55598409D02*
X114693741Y-55598409D01*
X115979455Y-54931742D02*
X115979455Y-55598409D01*
X115741360Y-54550790D02*
X115503265Y-55265075D01*
X115503265Y-55265075D02*
X116122312Y-55265075D01*
D10*
X108860818Y-72878480D02*
X108860818Y-73785623D01*
X108860818Y-73785623D02*
X108800341Y-73967051D01*
X108800341Y-73967051D02*
X108679389Y-74088004D01*
X108679389Y-74088004D02*
X108497960Y-74148480D01*
X108497960Y-74148480D02*
X108377008Y-74148480D01*
X109405103Y-72999432D02*
X109465579Y-72938956D01*
X109465579Y-72938956D02*
X109586532Y-72878480D01*
X109586532Y-72878480D02*
X109888913Y-72878480D01*
X109888913Y-72878480D02*
X110009865Y-72938956D01*
X110009865Y-72938956D02*
X110070341Y-72999432D01*
X110070341Y-72999432D02*
X110130818Y-73120384D01*
X110130818Y-73120384D02*
X110130818Y-73241337D01*
X110130818Y-73241337D02*
X110070341Y-73422765D01*
X110070341Y-73422765D02*
X109344627Y-74148480D01*
X109344627Y-74148480D02*
X110130818Y-74148480D01*
D12*
%TO.C,Y1*%
X57860000Y-50304077D02*
X59060000Y-50304077D01*
X59410000Y-50454077D02*
X60010000Y-50454077D01*
X59410000Y-53354077D02*
X59410000Y-50454077D01*
X60010000Y-50454077D02*
X60010000Y-53354077D01*
X60010000Y-53354077D02*
X59410000Y-53354077D01*
D13*
%TO.C,L2*%
X48820000Y-49076955D02*
X48820000Y-49876199D01*
X47700000Y-49076955D02*
X47700000Y-49876199D01*
%TO.C,C4*%
X95955000Y-50242825D02*
X95955000Y-51665329D01*
X94135000Y-50242825D02*
X94135000Y-51665329D01*
%TO.C,L1*%
X52262122Y-46434077D02*
X51462878Y-46434077D01*
X52262122Y-45314077D02*
X51462878Y-45314077D01*
%TO.C,C1*%
X53389589Y-56816837D02*
X53389589Y-55394333D01*
X55209589Y-56816837D02*
X55209589Y-55394333D01*
%TO.C,C3*%
X78386252Y-56944077D02*
X76963748Y-56944077D01*
X78386252Y-55124077D02*
X76963748Y-55124077D01*
%TO.C,R4*%
X100367321Y-55121824D02*
X100367321Y-54667696D01*
X101837321Y-55121824D02*
X101837321Y-54667696D01*
%TO.C,L3*%
X54865000Y-49914455D02*
X54865000Y-50713699D01*
X53745000Y-49914455D02*
X53745000Y-50713699D01*
%TO.C,J3*%
X39310000Y-80224077D02*
X39310000Y-78894077D01*
X40640000Y-80224077D02*
X39310000Y-80224077D01*
X41910000Y-80224077D02*
X44510000Y-80224077D01*
X41910000Y-80224077D02*
X41910000Y-77564077D01*
X44510000Y-80224077D02*
X44510000Y-77564077D01*
X41910000Y-77564077D02*
X44510000Y-77564077D01*
%TO.C,L4*%
X65480000Y-49138699D02*
X65480000Y-48339455D01*
X66600000Y-49138699D02*
X66600000Y-48339455D01*
%TO.C,C2*%
X78202357Y-48542526D02*
X76779853Y-48542526D01*
X78202357Y-46722526D02*
X76779853Y-46722526D01*
%TO.C,R3*%
X68722183Y-48918277D02*
X68722183Y-48464149D01*
X70192183Y-48918277D02*
X70192183Y-48464149D01*
%TO.C,L5*%
X66600000Y-54029455D02*
X66600000Y-54828699D01*
X65480000Y-54029455D02*
X65480000Y-54828699D01*
D14*
%TO.C,J1*%
X106955000Y-39594077D02*
X106955000Y-41994077D01*
X109255000Y-37294077D02*
X111655000Y-37294077D01*
X109255000Y-44294077D02*
X111655000Y-44294077D01*
X113955000Y-41994077D02*
X113955000Y-39594077D01*
D13*
%TO.C,C5*%
X94135000Y-60401252D02*
X94135000Y-58978748D01*
X95955000Y-60401252D02*
X95955000Y-58978748D01*
%TO.C,R2*%
X70192183Y-54144669D02*
X70192183Y-54598797D01*
X68722183Y-54144669D02*
X68722183Y-54598797D01*
%TO.C,R1*%
X44947064Y-58669077D02*
X44492936Y-58669077D01*
X44947064Y-57199077D02*
X44492936Y-57199077D01*
%TO.C,J4*%
X110430000Y-54704077D02*
X111760000Y-54704077D01*
X110430000Y-56034077D02*
X110430000Y-54704077D01*
X110430000Y-57304077D02*
X110430000Y-59904077D01*
X110430000Y-57304077D02*
X113090000Y-57304077D01*
X110430000Y-59904077D02*
X113090000Y-59904077D01*
X113090000Y-57304077D02*
X113090000Y-59904077D01*
D14*
%TO.C,J2*%
X105675699Y-78120150D02*
X105675699Y-80520150D01*
X107975699Y-75820150D02*
X110375699Y-75820150D01*
X107975699Y-82820150D02*
X110375699Y-82820150D01*
X112675699Y-80520150D02*
X112675699Y-78120150D01*
%TD*%
M02*
