%TF.GenerationSoftware,KiCad,Pcbnew,7.0.8-7.0.8~ubuntu22.04.1*%
%TF.CreationDate,2023-10-09T20:55:15-05:00*%
%TF.ProjectId,VCO_Test_Board,56434f5f-5465-4737-945f-426f6172642e,rev?*%
%TF.SameCoordinates,Original*%
%TF.FileFunction,Legend,Top*%
%TF.FilePolarity,Positive*%
%FSLAX46Y46*%
G04 Gerber Fmt 4.6, Leading zero omitted, Abs format (unit mm)*
G04 Created by KiCad (PCBNEW 7.0.8-7.0.8~ubuntu22.04.1) date 2023-10-09 20:55:15*
%MOMM*%
%LPD*%
G01*
G04 APERTURE LIST*
%ADD10C,0.150000*%
%ADD11C,0.254000*%
%ADD12C,0.200000*%
%ADD13C,0.100000*%
%ADD14C,0.120000*%
G04 APERTURE END LIST*
D10*
X97623333Y-63859580D02*
X97575714Y-63907200D01*
X97575714Y-63907200D02*
X97432857Y-63954819D01*
X97432857Y-63954819D02*
X97337619Y-63954819D01*
X97337619Y-63954819D02*
X97194762Y-63907200D01*
X97194762Y-63907200D02*
X97099524Y-63811961D01*
X97099524Y-63811961D02*
X97051905Y-63716723D01*
X97051905Y-63716723D02*
X97004286Y-63526247D01*
X97004286Y-63526247D02*
X97004286Y-63383390D01*
X97004286Y-63383390D02*
X97051905Y-63192914D01*
X97051905Y-63192914D02*
X97099524Y-63097676D01*
X97099524Y-63097676D02*
X97194762Y-63002438D01*
X97194762Y-63002438D02*
X97337619Y-62954819D01*
X97337619Y-62954819D02*
X97432857Y-62954819D01*
X97432857Y-62954819D02*
X97575714Y-63002438D01*
X97575714Y-63002438D02*
X97623333Y-63050057D01*
X98528095Y-62954819D02*
X98051905Y-62954819D01*
X98051905Y-62954819D02*
X98004286Y-63431009D01*
X98004286Y-63431009D02*
X98051905Y-63383390D01*
X98051905Y-63383390D02*
X98147143Y-63335771D01*
X98147143Y-63335771D02*
X98385238Y-63335771D01*
X98385238Y-63335771D02*
X98480476Y-63383390D01*
X98480476Y-63383390D02*
X98528095Y-63431009D01*
X98528095Y-63431009D02*
X98575714Y-63526247D01*
X98575714Y-63526247D02*
X98575714Y-63764342D01*
X98575714Y-63764342D02*
X98528095Y-63859580D01*
X98528095Y-63859580D02*
X98480476Y-63907200D01*
X98480476Y-63907200D02*
X98385238Y-63954819D01*
X98385238Y-63954819D02*
X98147143Y-63954819D01*
X98147143Y-63954819D02*
X98051905Y-63907200D01*
X98051905Y-63907200D02*
X98004286Y-63859580D01*
D11*
X59105238Y-51873633D02*
X59105238Y-52478395D01*
X58681905Y-51208395D02*
X59105238Y-51873633D01*
X59105238Y-51873633D02*
X59528572Y-51208395D01*
X60617143Y-52478395D02*
X59891428Y-52478395D01*
X60254285Y-52478395D02*
X60254285Y-51208395D01*
X60254285Y-51208395D02*
X60133333Y-51389823D01*
X60133333Y-51389823D02*
X60012381Y-51510776D01*
X60012381Y-51510776D02*
X59891428Y-51571252D01*
X108752366Y-74824468D02*
X108752366Y-75731611D01*
X108752366Y-75731611D02*
X108691889Y-75913039D01*
X108691889Y-75913039D02*
X108570937Y-76033992D01*
X108570937Y-76033992D02*
X108389508Y-76094468D01*
X108389508Y-76094468D02*
X108268556Y-76094468D01*
X109296651Y-74945420D02*
X109357127Y-74884944D01*
X109357127Y-74884944D02*
X109478080Y-74824468D01*
X109478080Y-74824468D02*
X109780461Y-74824468D01*
X109780461Y-74824468D02*
X109901413Y-74884944D01*
X109901413Y-74884944D02*
X109961889Y-74945420D01*
X109961889Y-74945420D02*
X110022366Y-75066372D01*
X110022366Y-75066372D02*
X110022366Y-75187325D01*
X110022366Y-75187325D02*
X109961889Y-75368753D01*
X109961889Y-75368753D02*
X109236175Y-76094468D01*
X109236175Y-76094468D02*
X110022366Y-76094468D01*
X110031667Y-36298395D02*
X110031667Y-37205538D01*
X110031667Y-37205538D02*
X109971190Y-37386966D01*
X109971190Y-37386966D02*
X109850238Y-37507919D01*
X109850238Y-37507919D02*
X109668809Y-37568395D01*
X109668809Y-37568395D02*
X109547857Y-37568395D01*
X111301667Y-37568395D02*
X110575952Y-37568395D01*
X110938809Y-37568395D02*
X110938809Y-36298395D01*
X110938809Y-36298395D02*
X110817857Y-36479823D01*
X110817857Y-36479823D02*
X110696905Y-36600776D01*
X110696905Y-36600776D02*
X110575952Y-36661252D01*
X97618333Y-61413365D02*
X97557857Y-61473842D01*
X97557857Y-61473842D02*
X97376428Y-61534318D01*
X97376428Y-61534318D02*
X97255476Y-61534318D01*
X97255476Y-61534318D02*
X97074047Y-61473842D01*
X97074047Y-61473842D02*
X96953095Y-61352889D01*
X96953095Y-61352889D02*
X96892618Y-61231937D01*
X96892618Y-61231937D02*
X96832142Y-60990032D01*
X96832142Y-60990032D02*
X96832142Y-60808603D01*
X96832142Y-60808603D02*
X96892618Y-60566699D01*
X96892618Y-60566699D02*
X96953095Y-60445746D01*
X96953095Y-60445746D02*
X97074047Y-60324794D01*
X97074047Y-60324794D02*
X97255476Y-60264318D01*
X97255476Y-60264318D02*
X97376428Y-60264318D01*
X97376428Y-60264318D02*
X97557857Y-60324794D01*
X97557857Y-60324794D02*
X97618333Y-60385270D01*
X98767380Y-60264318D02*
X98162618Y-60264318D01*
X98162618Y-60264318D02*
X98102142Y-60869080D01*
X98102142Y-60869080D02*
X98162618Y-60808603D01*
X98162618Y-60808603D02*
X98283571Y-60748127D01*
X98283571Y-60748127D02*
X98585952Y-60748127D01*
X98585952Y-60748127D02*
X98706904Y-60808603D01*
X98706904Y-60808603D02*
X98767380Y-60869080D01*
X98767380Y-60869080D02*
X98827857Y-60990032D01*
X98827857Y-60990032D02*
X98827857Y-61292413D01*
X98827857Y-61292413D02*
X98767380Y-61413365D01*
X98767380Y-61413365D02*
X98706904Y-61473842D01*
X98706904Y-61473842D02*
X98585952Y-61534318D01*
X98585952Y-61534318D02*
X98283571Y-61534318D01*
X98283571Y-61534318D02*
X98162618Y-61473842D01*
X98162618Y-61473842D02*
X98102142Y-61413365D01*
D10*
X45553333Y-48868896D02*
X45077143Y-48868896D01*
X45077143Y-48868896D02*
X45077143Y-47868896D01*
X45839048Y-47964134D02*
X45886667Y-47916515D01*
X45886667Y-47916515D02*
X45981905Y-47868896D01*
X45981905Y-47868896D02*
X46220000Y-47868896D01*
X46220000Y-47868896D02*
X46315238Y-47916515D01*
X46315238Y-47916515D02*
X46362857Y-47964134D01*
X46362857Y-47964134D02*
X46410476Y-48059372D01*
X46410476Y-48059372D02*
X46410476Y-48154610D01*
X46410476Y-48154610D02*
X46362857Y-48297467D01*
X46362857Y-48297467D02*
X45791429Y-48868896D01*
X45791429Y-48868896D02*
X46410476Y-48868896D01*
X94784828Y-47944139D02*
X94737209Y-47991759D01*
X94737209Y-47991759D02*
X94594352Y-48039378D01*
X94594352Y-48039378D02*
X94499114Y-48039378D01*
X94499114Y-48039378D02*
X94356257Y-47991759D01*
X94356257Y-47991759D02*
X94261019Y-47896520D01*
X94261019Y-47896520D02*
X94213400Y-47801282D01*
X94213400Y-47801282D02*
X94165781Y-47610806D01*
X94165781Y-47610806D02*
X94165781Y-47467949D01*
X94165781Y-47467949D02*
X94213400Y-47277473D01*
X94213400Y-47277473D02*
X94261019Y-47182235D01*
X94261019Y-47182235D02*
X94356257Y-47086997D01*
X94356257Y-47086997D02*
X94499114Y-47039378D01*
X94499114Y-47039378D02*
X94594352Y-47039378D01*
X94594352Y-47039378D02*
X94737209Y-47086997D01*
X94737209Y-47086997D02*
X94784828Y-47134616D01*
X95641971Y-47372711D02*
X95641971Y-48039378D01*
X95403876Y-46991759D02*
X95165781Y-47706044D01*
X95165781Y-47706044D02*
X95784828Y-47706044D01*
X51695833Y-43788896D02*
X51219643Y-43788896D01*
X51219643Y-43788896D02*
X51219643Y-42788896D01*
X52552976Y-43788896D02*
X51981548Y-43788896D01*
X52267262Y-43788896D02*
X52267262Y-42788896D01*
X52267262Y-42788896D02*
X52172024Y-42931753D01*
X52172024Y-42931753D02*
X52076786Y-43026991D01*
X52076786Y-43026991D02*
X51981548Y-43074610D01*
X52071469Y-59498648D02*
X52023850Y-59546268D01*
X52023850Y-59546268D02*
X51880993Y-59593887D01*
X51880993Y-59593887D02*
X51785755Y-59593887D01*
X51785755Y-59593887D02*
X51642898Y-59546268D01*
X51642898Y-59546268D02*
X51547660Y-59451029D01*
X51547660Y-59451029D02*
X51500041Y-59355791D01*
X51500041Y-59355791D02*
X51452422Y-59165315D01*
X51452422Y-59165315D02*
X51452422Y-59022458D01*
X51452422Y-59022458D02*
X51500041Y-58831982D01*
X51500041Y-58831982D02*
X51547660Y-58736744D01*
X51547660Y-58736744D02*
X51642898Y-58641506D01*
X51642898Y-58641506D02*
X51785755Y-58593887D01*
X51785755Y-58593887D02*
X51880993Y-58593887D01*
X51880993Y-58593887D02*
X52023850Y-58641506D01*
X52023850Y-58641506D02*
X52071469Y-58689125D01*
X53023850Y-59593887D02*
X52452422Y-59593887D01*
X52738136Y-59593887D02*
X52738136Y-58593887D01*
X52738136Y-58593887D02*
X52642898Y-58736744D01*
X52642898Y-58736744D02*
X52547660Y-58831982D01*
X52547660Y-58831982D02*
X52452422Y-58879601D01*
X77314932Y-54390997D02*
X77267313Y-54438617D01*
X77267313Y-54438617D02*
X77124456Y-54486236D01*
X77124456Y-54486236D02*
X77029218Y-54486236D01*
X77029218Y-54486236D02*
X76886361Y-54438617D01*
X76886361Y-54438617D02*
X76791123Y-54343378D01*
X76791123Y-54343378D02*
X76743504Y-54248140D01*
X76743504Y-54248140D02*
X76695885Y-54057664D01*
X76695885Y-54057664D02*
X76695885Y-53914807D01*
X76695885Y-53914807D02*
X76743504Y-53724331D01*
X76743504Y-53724331D02*
X76791123Y-53629093D01*
X76791123Y-53629093D02*
X76886361Y-53533855D01*
X76886361Y-53533855D02*
X77029218Y-53486236D01*
X77029218Y-53486236D02*
X77124456Y-53486236D01*
X77124456Y-53486236D02*
X77267313Y-53533855D01*
X77267313Y-53533855D02*
X77314932Y-53581474D01*
X77648266Y-53486236D02*
X78267313Y-53486236D01*
X78267313Y-53486236D02*
X77933980Y-53867188D01*
X77933980Y-53867188D02*
X78076837Y-53867188D01*
X78076837Y-53867188D02*
X78172075Y-53914807D01*
X78172075Y-53914807D02*
X78219694Y-53962426D01*
X78219694Y-53962426D02*
X78267313Y-54057664D01*
X78267313Y-54057664D02*
X78267313Y-54295759D01*
X78267313Y-54295759D02*
X78219694Y-54390997D01*
X78219694Y-54390997D02*
X78172075Y-54438617D01*
X78172075Y-54438617D02*
X78076837Y-54486236D01*
X78076837Y-54486236D02*
X77791123Y-54486236D01*
X77791123Y-54486236D02*
X77695885Y-54438617D01*
X77695885Y-54438617D02*
X77648266Y-54390997D01*
X103181383Y-52487991D02*
X102848050Y-52011800D01*
X102609955Y-52487991D02*
X102609955Y-51487991D01*
X102609955Y-51487991D02*
X102990907Y-51487991D01*
X102990907Y-51487991D02*
X103086145Y-51535610D01*
X103086145Y-51535610D02*
X103133764Y-51583229D01*
X103133764Y-51583229D02*
X103181383Y-51678467D01*
X103181383Y-51678467D02*
X103181383Y-51821324D01*
X103181383Y-51821324D02*
X103133764Y-51916562D01*
X103133764Y-51916562D02*
X103086145Y-51964181D01*
X103086145Y-51964181D02*
X102990907Y-52011800D01*
X102990907Y-52011800D02*
X102609955Y-52011800D01*
X104038526Y-51821324D02*
X104038526Y-52487991D01*
X103800431Y-51440372D02*
X103562336Y-52154657D01*
X103562336Y-52154657D02*
X104181383Y-52154657D01*
X55534915Y-48098649D02*
X55058725Y-48098649D01*
X55058725Y-48098649D02*
X55058725Y-47098649D01*
X55773011Y-47098649D02*
X56392058Y-47098649D01*
X56392058Y-47098649D02*
X56058725Y-47479601D01*
X56058725Y-47479601D02*
X56201582Y-47479601D01*
X56201582Y-47479601D02*
X56296820Y-47527220D01*
X56296820Y-47527220D02*
X56344439Y-47574839D01*
X56344439Y-47574839D02*
X56392058Y-47670077D01*
X56392058Y-47670077D02*
X56392058Y-47908172D01*
X56392058Y-47908172D02*
X56344439Y-48003410D01*
X56344439Y-48003410D02*
X56296820Y-48051030D01*
X56296820Y-48051030D02*
X56201582Y-48098649D01*
X56201582Y-48098649D02*
X55915868Y-48098649D01*
X55915868Y-48098649D02*
X55820630Y-48051030D01*
X55820630Y-48051030D02*
X55773011Y-48003410D01*
X37378658Y-77239000D02*
X37378658Y-77953285D01*
X37378658Y-77953285D02*
X37331039Y-78096142D01*
X37331039Y-78096142D02*
X37235801Y-78191381D01*
X37235801Y-78191381D02*
X37092944Y-78239000D01*
X37092944Y-78239000D02*
X36997706Y-78239000D01*
X37759611Y-77239000D02*
X38378658Y-77239000D01*
X38378658Y-77239000D02*
X38045325Y-77619952D01*
X38045325Y-77619952D02*
X38188182Y-77619952D01*
X38188182Y-77619952D02*
X38283420Y-77667571D01*
X38283420Y-77667571D02*
X38331039Y-77715190D01*
X38331039Y-77715190D02*
X38378658Y-77810428D01*
X38378658Y-77810428D02*
X38378658Y-78048523D01*
X38378658Y-78048523D02*
X38331039Y-78143761D01*
X38331039Y-78143761D02*
X38283420Y-78191381D01*
X38283420Y-78191381D02*
X38188182Y-78239000D01*
X38188182Y-78239000D02*
X37902468Y-78239000D01*
X37902468Y-78239000D02*
X37807230Y-78191381D01*
X37807230Y-78191381D02*
X37759611Y-78143761D01*
X65873333Y-46328896D02*
X65397143Y-46328896D01*
X65397143Y-46328896D02*
X65397143Y-45328896D01*
X66635238Y-45662229D02*
X66635238Y-46328896D01*
X66397143Y-45281277D02*
X66159048Y-45995562D01*
X66159048Y-45995562D02*
X66778095Y-45995562D01*
X77324438Y-49842106D02*
X77276819Y-49889726D01*
X77276819Y-49889726D02*
X77133962Y-49937345D01*
X77133962Y-49937345D02*
X77038724Y-49937345D01*
X77038724Y-49937345D02*
X76895867Y-49889726D01*
X76895867Y-49889726D02*
X76800629Y-49794487D01*
X76800629Y-49794487D02*
X76753010Y-49699249D01*
X76753010Y-49699249D02*
X76705391Y-49508773D01*
X76705391Y-49508773D02*
X76705391Y-49365916D01*
X76705391Y-49365916D02*
X76753010Y-49175440D01*
X76753010Y-49175440D02*
X76800629Y-49080202D01*
X76800629Y-49080202D02*
X76895867Y-48984964D01*
X76895867Y-48984964D02*
X77038724Y-48937345D01*
X77038724Y-48937345D02*
X77133962Y-48937345D01*
X77133962Y-48937345D02*
X77276819Y-48984964D01*
X77276819Y-48984964D02*
X77324438Y-49032583D01*
X77705391Y-49032583D02*
X77753010Y-48984964D01*
X77753010Y-48984964D02*
X77848248Y-48937345D01*
X77848248Y-48937345D02*
X78086343Y-48937345D01*
X78086343Y-48937345D02*
X78181581Y-48984964D01*
X78181581Y-48984964D02*
X78229200Y-49032583D01*
X78229200Y-49032583D02*
X78276819Y-49127821D01*
X78276819Y-49127821D02*
X78276819Y-49223059D01*
X78276819Y-49223059D02*
X78229200Y-49365916D01*
X78229200Y-49365916D02*
X77657772Y-49937345D01*
X77657772Y-49937345D02*
X78276819Y-49937345D01*
X71645403Y-49207617D02*
X71312070Y-48731426D01*
X71073975Y-49207617D02*
X71073975Y-48207617D01*
X71073975Y-48207617D02*
X71454927Y-48207617D01*
X71454927Y-48207617D02*
X71550165Y-48255236D01*
X71550165Y-48255236D02*
X71597784Y-48302855D01*
X71597784Y-48302855D02*
X71645403Y-48398093D01*
X71645403Y-48398093D02*
X71645403Y-48540950D01*
X71645403Y-48540950D02*
X71597784Y-48636188D01*
X71597784Y-48636188D02*
X71550165Y-48683807D01*
X71550165Y-48683807D02*
X71454927Y-48731426D01*
X71454927Y-48731426D02*
X71073975Y-48731426D01*
X71978737Y-48207617D02*
X72597784Y-48207617D01*
X72597784Y-48207617D02*
X72264451Y-48588569D01*
X72264451Y-48588569D02*
X72407308Y-48588569D01*
X72407308Y-48588569D02*
X72502546Y-48636188D01*
X72502546Y-48636188D02*
X72550165Y-48683807D01*
X72550165Y-48683807D02*
X72597784Y-48779045D01*
X72597784Y-48779045D02*
X72597784Y-49017140D01*
X72597784Y-49017140D02*
X72550165Y-49112378D01*
X72550165Y-49112378D02*
X72502546Y-49159998D01*
X72502546Y-49159998D02*
X72407308Y-49207617D01*
X72407308Y-49207617D02*
X72121594Y-49207617D01*
X72121594Y-49207617D02*
X72026356Y-49159998D01*
X72026356Y-49159998D02*
X71978737Y-49112378D01*
X66103865Y-57930831D02*
X65627675Y-57930831D01*
X65627675Y-57930831D02*
X65627675Y-56930831D01*
X66913389Y-56930831D02*
X66437199Y-56930831D01*
X66437199Y-56930831D02*
X66389580Y-57407021D01*
X66389580Y-57407021D02*
X66437199Y-57359402D01*
X66437199Y-57359402D02*
X66532437Y-57311783D01*
X66532437Y-57311783D02*
X66770532Y-57311783D01*
X66770532Y-57311783D02*
X66865770Y-57359402D01*
X66865770Y-57359402D02*
X66913389Y-57407021D01*
X66913389Y-57407021D02*
X66961008Y-57502259D01*
X66961008Y-57502259D02*
X66961008Y-57740354D01*
X66961008Y-57740354D02*
X66913389Y-57835592D01*
X66913389Y-57835592D02*
X66865770Y-57883212D01*
X66865770Y-57883212D02*
X66770532Y-57930831D01*
X66770532Y-57930831D02*
X66532437Y-57930831D01*
X66532437Y-57930831D02*
X66437199Y-57883212D01*
X66437199Y-57883212D02*
X66389580Y-57835592D01*
X71661569Y-54888907D02*
X71328236Y-54412716D01*
X71090141Y-54888907D02*
X71090141Y-53888907D01*
X71090141Y-53888907D02*
X71471093Y-53888907D01*
X71471093Y-53888907D02*
X71566331Y-53936526D01*
X71566331Y-53936526D02*
X71613950Y-53984145D01*
X71613950Y-53984145D02*
X71661569Y-54079383D01*
X71661569Y-54079383D02*
X71661569Y-54222240D01*
X71661569Y-54222240D02*
X71613950Y-54317478D01*
X71613950Y-54317478D02*
X71566331Y-54365097D01*
X71566331Y-54365097D02*
X71471093Y-54412716D01*
X71471093Y-54412716D02*
X71090141Y-54412716D01*
X72042522Y-53984145D02*
X72090141Y-53936526D01*
X72090141Y-53936526D02*
X72185379Y-53888907D01*
X72185379Y-53888907D02*
X72423474Y-53888907D01*
X72423474Y-53888907D02*
X72518712Y-53936526D01*
X72518712Y-53936526D02*
X72566331Y-53984145D01*
X72566331Y-53984145D02*
X72613950Y-54079383D01*
X72613950Y-54079383D02*
X72613950Y-54174621D01*
X72613950Y-54174621D02*
X72566331Y-54317478D01*
X72566331Y-54317478D02*
X71994903Y-54888907D01*
X71994903Y-54888907D02*
X72613950Y-54888907D01*
X44553333Y-60038896D02*
X44220000Y-59562705D01*
X43981905Y-60038896D02*
X43981905Y-59038896D01*
X43981905Y-59038896D02*
X44362857Y-59038896D01*
X44362857Y-59038896D02*
X44458095Y-59086515D01*
X44458095Y-59086515D02*
X44505714Y-59134134D01*
X44505714Y-59134134D02*
X44553333Y-59229372D01*
X44553333Y-59229372D02*
X44553333Y-59372229D01*
X44553333Y-59372229D02*
X44505714Y-59467467D01*
X44505714Y-59467467D02*
X44458095Y-59515086D01*
X44458095Y-59515086D02*
X44362857Y-59562705D01*
X44362857Y-59562705D02*
X43981905Y-59562705D01*
X45505714Y-60038896D02*
X44934286Y-60038896D01*
X45220000Y-60038896D02*
X45220000Y-59038896D01*
X45220000Y-59038896D02*
X45124762Y-59181753D01*
X45124762Y-59181753D02*
X45029524Y-59276991D01*
X45029524Y-59276991D02*
X44934286Y-59324610D01*
X115074693Y-54598409D02*
X115074693Y-55312694D01*
X115074693Y-55312694D02*
X115027074Y-55455551D01*
X115027074Y-55455551D02*
X114931836Y-55550790D01*
X114931836Y-55550790D02*
X114788979Y-55598409D01*
X114788979Y-55598409D02*
X114693741Y-55598409D01*
X115979455Y-54931742D02*
X115979455Y-55598409D01*
X115741360Y-54550790D02*
X115503265Y-55265075D01*
X115503265Y-55265075D02*
X116122312Y-55265075D01*
D12*
%TO.C,Y1*%
X57860000Y-50304077D02*
X59060000Y-50304077D01*
X59410000Y-50454077D02*
X60010000Y-50454077D01*
X59410000Y-53354077D02*
X59410000Y-50454077D01*
X60010000Y-50454077D02*
X60010000Y-53354077D01*
X60010000Y-53354077D02*
X59410000Y-53354077D01*
D13*
%TO.C,J2*%
X105675699Y-78120150D02*
X105675699Y-80520150D01*
X107975699Y-82820150D02*
X110375699Y-82820150D01*
X112675699Y-80520150D02*
X112675699Y-78120150D01*
X107975699Y-75820150D02*
X110375699Y-75820150D01*
%TO.C,J1*%
X106955000Y-39594077D02*
X106955000Y-41994077D01*
X109255000Y-44294077D02*
X111655000Y-44294077D01*
X113955000Y-41994077D02*
X113955000Y-39594077D01*
X109255000Y-37294077D02*
X111655000Y-37294077D01*
D12*
%TO.C,C5*%
X100830000Y-59385000D02*
X94830000Y-59385000D01*
X94830000Y-62535000D02*
X101430000Y-62535000D01*
D14*
%TO.C,L2*%
X48820000Y-49076955D02*
X48820000Y-49876199D01*
X47700000Y-49076955D02*
X47700000Y-49876199D01*
%TO.C,C4*%
X95955000Y-50242825D02*
X95955000Y-51665329D01*
X94135000Y-50242825D02*
X94135000Y-51665329D01*
%TO.C,L1*%
X52262122Y-46434077D02*
X51462878Y-46434077D01*
X52262122Y-45314077D02*
X51462878Y-45314077D01*
%TO.C,C1*%
X53389589Y-56816837D02*
X53389589Y-55394333D01*
X55209589Y-56816837D02*
X55209589Y-55394333D01*
%TO.C,C3*%
X78386252Y-56944077D02*
X76963748Y-56944077D01*
X78386252Y-55124077D02*
X76963748Y-55124077D01*
%TO.C,R4*%
X100367321Y-55121824D02*
X100367321Y-54667696D01*
X101837321Y-55121824D02*
X101837321Y-54667696D01*
%TO.C,L3*%
X54865000Y-49914455D02*
X54865000Y-50713699D01*
X53745000Y-49914455D02*
X53745000Y-50713699D01*
%TO.C,J3*%
X39310000Y-80224077D02*
X39310000Y-78894077D01*
X40640000Y-80224077D02*
X39310000Y-80224077D01*
X41910000Y-80224077D02*
X44510000Y-80224077D01*
X41910000Y-80224077D02*
X41910000Y-77564077D01*
X44510000Y-80224077D02*
X44510000Y-77564077D01*
X41910000Y-77564077D02*
X44510000Y-77564077D01*
%TO.C,L4*%
X65480000Y-49138699D02*
X65480000Y-48339455D01*
X66600000Y-49138699D02*
X66600000Y-48339455D01*
%TO.C,C2*%
X78202357Y-48542526D02*
X76779853Y-48542526D01*
X78202357Y-46722526D02*
X76779853Y-46722526D01*
%TO.C,R3*%
X68722183Y-48918277D02*
X68722183Y-48464149D01*
X70192183Y-48918277D02*
X70192183Y-48464149D01*
%TO.C,L5*%
X66600000Y-54029455D02*
X66600000Y-54828699D01*
X65480000Y-54029455D02*
X65480000Y-54828699D01*
%TO.C,R2*%
X70192183Y-54144669D02*
X70192183Y-54598797D01*
X68722183Y-54144669D02*
X68722183Y-54598797D01*
%TO.C,R1*%
X44947064Y-58669077D02*
X44492936Y-58669077D01*
X44947064Y-57199077D02*
X44492936Y-57199077D01*
%TO.C,J4*%
X110430000Y-54704077D02*
X111760000Y-54704077D01*
X110430000Y-56034077D02*
X110430000Y-54704077D01*
X110430000Y-57304077D02*
X110430000Y-59904077D01*
X110430000Y-57304077D02*
X113090000Y-57304077D01*
X110430000Y-59904077D02*
X113090000Y-59904077D01*
X113090000Y-57304077D02*
X113090000Y-59904077D01*
%TD*%
M02*
